<?xml version="1.0" encoding="UTF-8"?>
<svg width="55.7" height="55.7" fill="#555" version="1.1" viewBox="0 0 55.700001 55.700001" xml:space="preserve" xmlns="http://www.w3.org/2000/svg" xmlns:cc="http://creativecommons.org/ns#" xmlns:dc="http://purl.org/dc/elements/1.1/" xmlns:rdf="http://www.w3.org/1999/02/22-rdf-syntax-ns#"><metadata><rdf:RDF><cc:Work rdf:about=""><dc:format>image/svg+xml</dc:format><dc:type rdf:resource="http://purl.org/dc/dcmitype/StillImage"/><dc:title/></cc:Work></rdf:RDF></metadata><style type="text/css">
	.st0{fill:none;stroke:#000000;stroke-width:2;stroke-linecap:round;stroke-linejoin:round;stroke-miterlimit:10;}
</style><path d="m54.6 0h-53.6c-0.6 0-1 0.4-1 1v53.7c0 0.6 0.4 1 1 1h53.7c0.6 0 1-0.4 1-1v-53.7c-0.1-0.6-0.5-1-1.1-1zm-1 53.6h-51.6v-51.6h51.7v51.6z"/><path d="m15.2 40.3c0.2 0.2 0.5 0.3 0.7 0.3s0.5-0.1 0.7-0.3l11.2-11.2 11.2 11.2c0.2 0.2 0.5 0.3 0.7 0.3s0.5-0.1 0.7-0.3c0.4-0.4 0.4-1 0-1.4l-11.2-11.3 11.2-11.2c0.4-0.4 0.4-1 0-1.4s-1-0.4-1.4 0l-11.2 11.2-11.2-11.2c-0.4-0.4-1-0.4-1.4 0s-0.4 1 0 1.4l11.2 11.2-11.2 11.3c-0.4 0.3-0.4 1 0 1.4z"/></svg>
