<svg fill="#000000" xmlns="http://www.w3.org/2000/svg" xmlns:xlink="http://www.w3.org/1999/xlink" version="1.1" x="0px" y="0px" viewBox="0 0 100 100" style="enable-background:new 0 0 100 100;" xml:space="preserve"><style type="text/css">
	.st0{fill:none;stroke:#000000;stroke-width:2;stroke-linecap:round;stroke-linejoin:round;stroke-miterlimit:10;}
</style><path d="M76.5,21.8H22.9c-0.6,0-1,0.4-1,1v53.7c0,0.6,0.4,1,1,1h53.7c0.6,0,1-0.4,1-1V22.8C77.5,22.2,77.1,21.8,76.5,21.8z   M75.5,75.4H23.9V23.8h51.7V75.4z"/><path d="M37.1,62.1c0.2,0.2,0.5,0.3,0.7,0.3s0.5-0.1,0.7-0.3l11.2-11.2l11.2,11.2c0.2,0.2,0.5,0.3,0.7,0.3s0.5-0.1,0.7-0.3  c0.4-0.4,0.4-1,0-1.4L51.1,49.4l11.2-11.2c0.4-0.4,0.4-1,0-1.4s-1-0.4-1.4,0L49.7,48L38.5,36.8c-0.4-0.4-1-0.4-1.4,0s-0.4,1,0,1.4  l11.2,11.2L37.1,60.7C36.7,61,36.7,61.7,37.1,62.1z"/></svg>