<?xml version="1.0" encoding="UTF-8"?>
<svg width="55.7" height="55.7" version="1.1" viewBox="0 0 55.700001 55.700001" xml:space="preserve" xmlns="http://www.w3.org/2000/svg" xmlns:cc="http://creativecommons.org/ns#" xmlns:dc="http://purl.org/dc/elements/1.1/" xmlns:rdf="http://www.w3.org/1999/02/22-rdf-syntax-ns#"><metadata><rdf:RDF><cc:Work rdf:about=""><dc:format>image/svg+xml</dc:format><dc:type rdf:resource="http://purl.org/dc/dcmitype/StillImage"/><dc:title/></cc:Work></rdf:RDF></metadata><style type="text/css">
	.st0{fill:none;stroke:#000000;stroke-width:2;stroke-linecap:round;stroke-linejoin:round;stroke-miterlimit:10;}
</style><path d="m1 0c-0.6 0-1 0.4-1 1v53.699c0 0.6 0.4 1 1 1h53.699c0.6 0 1-0.4 1-1v-53.699c-0.1-0.6-0.49961-1-1.0996-1h-53.6zm14.9 14.699c0.25 0 0.49922 0.10078 0.69922 0.30078l11.201 11.199 11.199-11.199c0.4-0.4 1.0004-0.4 1.4004 0s0.4 1.0004 0 1.4004l-11.201 11.199 11.201 11.301c0.4 0.4 0.4 1.0004 0 1.4004-0.2 0.2-0.50117 0.29883-0.70117 0.29883s-0.49922-0.098828-0.69922-0.29883l-11.199-11.201-11.201 11.201c-0.2 0.2-0.49922 0.29883-0.69922 0.29883s-0.50117-0.098828-0.70117-0.29883c-0.4-0.4-0.4-1.1004 0-1.4004l11.201-11.301-11.201-11.199c-0.4-0.4-0.4-1.0004 0-1.4004 0.2-0.2 0.45117-0.30078 0.70117-0.30078z"/></svg>
