<svg fill="#000000" xmlns="http://www.w3.org/2000/svg" xmlns:xlink="http://www.w3.org/1999/xlink" version="1.1" x="0px" y="0px" viewBox="0 0 100 100" style="enable-background:new 0 0 100 100;" xml:space="preserve"><style type="text/css">
	.st0{fill:none;stroke:#000000;stroke-width:2;stroke-linecap:round;stroke-linejoin:round;stroke-miterlimit:10;}
</style><path d="M76.7,21.8H23c-0.6,0-1,0.4-1,1v53.7c0,0.6,0.4,1,1,1h53.7c0.6,0,1-0.4,1-1V22.8C77.7,22.2,77.2,21.8,76.7,21.8z M75.7,75.4  H24V23.8h51.7V75.4z"/><path d="M42.4,62.1c0.2,0.2,0.5,0.3,0.7,0.3s0.5-0.1,0.7-0.3l23.8-23.8c0.4-0.4,0.4-1,0-1.4s-1-0.4-1.4,0L43.2,59.9l-9.8-9.8  c-0.4-0.4-1-0.4-1.4,0s-0.4,1,0,1.4L42.4,62.1z"/></svg>