<svg fill="#000000" xmlns="http://www.w3.org/2000/svg" xmlns:xlink="http://www.w3.org/1999/xlink" version="1.1" x="0px" y="0px" viewBox="0 0 100 100" style="enable-background:new 0 0 100 100;" xml:space="preserve"><style type="text/css">
	.st0{fill:none;stroke:#000000;stroke-width:2;stroke-linecap:round;stroke-linejoin:round;stroke-miterlimit:10;}
</style><path d="M76.5,21.8H22.8c-0.6,0-1,0.4-1,1v53.7c0,0.6,0.4,1,1,1h53.7c0.6,0,1-0.4,1-1V22.8C77.5,22.2,77.1,21.8,76.5,21.8z   M75.5,75.4H23.8V23.8h51.7V75.4z"/><path d="M32.8,50.4h33.7c0.6,0,1-0.4,1-1s-0.4-1-1-1H32.8c-0.6,0-1,0.4-1,1S32.3,50.4,32.8,50.4z"/></svg>