<svg width="55.7" height="55.7" fill="#555" version="1.1" viewBox="0 0 55.700001 55.700001" xmlns="http://www.w3.org/2000/svg">
 <style type="text/css">.st0{fill:none;stroke:#000000;stroke-width:2;stroke-linecap:round;stroke-linejoin:round;stroke-miterlimit:10;}</style>
 <path d="m54.6 0h-53.6c-0.6 0-1 0.4-1 1v53.7c0 0.6 0.4 1 1 1h53.7c0.6 0 1-0.4 1-1v-53.7c-0.1-0.6-0.5-1-1.1-1zm-1 53.6h-51.6v-51.6h51.7v51.6z"/>
 <path d="m10.9 28.6h15.9v15.9c0 0.6 0.4 1 1 1s1-0.4 1-1v-15.9h15.9c0.6 0 1-0.4 1-1s-0.4-1-1-1h-15.9v-15.8c0-0.6-0.4-1-1-1s-1 0.4-1 1v15.9h-15.9c-0.6 0-1 0.4-1 1s0.5 0.9 1 0.9z"/>
</svg>
