<svg fill="#000000" xmlns="http://www.w3.org/2000/svg" xmlns:xlink="http://www.w3.org/1999/xlink" version="1.1" x="0px" y="0px" viewBox="0 0 100 100" style="enable-background:new 0 0 100 100;" xml:space="preserve"><style type="text/css">
	.st0{fill:none;stroke:#000000;stroke-width:2;stroke-linecap:round;stroke-linejoin:round;stroke-miterlimit:10;}
</style><path d="M77.2,21.8H23.6c-0.6,0-1,0.4-1,1v53.7c0,0.6,0.4,1,1,1h53.7c0.6,0,1-0.4,1-1V22.8C78.2,22.2,77.8,21.8,77.2,21.8z   M76.2,75.4H24.6V23.8h51.7V75.4z"/><path d="M33.5,50.4h15.9v15.9c0,0.6,0.4,1,1,1s1-0.4,1-1V50.4h15.9c0.6,0,1-0.4,1-1s-0.4-1-1-1H51.4V32.6c0-0.6-0.4-1-1-1  s-1,0.4-1,1v15.9H33.5c-0.6,0-1,0.4-1,1S33,50.4,33.5,50.4z"/></svg>